# xmcd CD database file
#
# Track frame offsets:
#	150
#	18709
#	37313
#	60288
#
# Disc length: 1109 seconds
#
# Revision: 0
# Processed by: cddbd v1.5PL3 Copyright (c) Steve Scherf et al.
# Submitted via: CDex 1.51
#
DISCID=30045304
DTITLE=中原小麦 - ナースウィッチ小麦ちゃんマジカルて　愛のお手当てCD
DYEAR=2004
DGENRE=Game
TTITLE0=ロックンロールプレイング
TTITLE1=ロックンロールプレイング（カラオケ）
TTITLE2=Heron Sister
TTITLE3=Heron Sister（カラオケ）
EXTD=YEAR: 2004
EXTT0=
EXTT1=
EXTT2=
EXTT3=
PLAYORDER=
